<?xml version="1.0" standalone="no"?>
<!DOCTYPE svg PUBLIC "-//W3C//DTD SVG 20010904//EN"
 "http://www.w3.org/TR/2001/REC-SVG-20010904/DTD/svg10.dtd">
<svg version="1.0" xmlns="http://www.w3.org/2000/svg"
 width="270.000000pt" height="270.000000pt" viewBox="0 0 270.000000 270.000000"
 preserveAspectRatio="xMidYMid meet">
<metadata>
Created by potrace 1.11, written by Peter Selinger 2001-2013
</metadata>
<g transform="translate(0.000000,270.000000) scale(0.100000,-0.100000)"
fill="#000000" stroke="none">
<path d="M0 1350 l0 -1350 1350 0 1350 0 0 1350 0 1350 -1350 0 -1350 0 0
-1350z m1676 1190 l52 -29 -5 -48 c-3 -26 -12 -75 -20 -107 -16 -66 -53 -349
-53 -411 0 -33 7 -46 41 -81 l40 -41 -61 -119 c-57 -112 -63 -129 -97 -304
-37 -184 -37 -187 -35 -410 l2 -225 47 -41 46 -41 -16 -44 c-61 -167 -67 -191
-77 -305 -6 -65 -16 -133 -21 -151 -10 -33 -42 -60 -75 -63 -102 -11 -104 -4
-97 363 5 254 3 304 -12 387 -30 160 -30 165 0 204 72 94 59 167 -77 435 -107
213 -191 351 -262 436 -73 86 -81 103 -81 175 0 63 -3 70 -52 146 -29 43 -57
92 -63 109 -10 27 -9 32 15 52 21 18 38 23 85 23 l59 0 57 -117 c71 -151 200
-380 232 -415 15 -16 41 -30 61 -34 60 -10 65 -13 83 -44 9 -16 22 -30 27 -30
23 0 35 89 36 248 0 142 2 165 17 173 38 21 60 77 65 167 5 111 9 128 33 152
27 27 46 25 106 -10z"/>
</g>
</svg>
