<svg xmlns="http://www.w3.org/2000/svg" viewBox="0 0 885.827 283.465"><defs><filter id="a" width="1.5" height="1.5" x="-.25" y="-.25" color-interpolation-filters="sRGB"><feGaussianBlur result="result1" stdDeviation="4"/><feComposite in="result1" in2="result1" operator="in" result="result4"/><feGaussianBlur in="result4" result="result6" stdDeviation="2"/><feComposite in="result6" in2="result4" operator="xor" result="result8"/><feComposite in="result4" in2="result8" operator="atop" result="fbSourceGraphic"/><feSpecularLighting in="fbSourceGraphic" lighting-color="#fff" result="result1" specularConstant="1.3" specularExponent="10" surfaceScale="3"><feDistantLight azimuth="235" elevation="55"/></feSpecularLighting><feComposite in="result1" in2="fbSourceGraphic" operator="atop" result="result2"/><feComposite in="fbSourceGraphic" in2="result2" k2="1" k3="1" operator="arithmetic" result="result4"/><feComposite in="result4" in2="SourceGraphic"/><feBlend in2="result2" mode="multiply"/></filter></defs><path d="M173.307 145.74l4.9 148.358q11.474 0 22.948-2.574 11.604-2.808 23.723-5.148l.516 7.722q-.13 0-2.45.702-2.192.468-5.93 1.404-3.61.702-8.252 1.638l-9.283 1.872q-4.641.936-8.896 1.872-4.254.936-7.349 1.404h-.644q-.516.234-1.16.234H179.108q-2.837 0-4.642-5.382-1.805-5.616-2.965-14.976-1.16-9.594-1.676-21.762-.516-12.403-.774-25.74-.257-13.34-.257-26.911.129-13.573.129-25.507 0-12.168-.13-21.996 0-9.828-.386-15.21h4.9zM240.293 177.096q2.063-5.382 5.415-9.126 3.48-3.978 7.606-6.552 4.255-2.574 9.025-3.978 4.9-1.404 9.54-2.106 4.642-.702 9.026-.936 4.383-.234 7.735-.234.258 0 1.16.234.903 0 1.935.234h3.094q.516 5.148-.645 7.254-1.031 1.872-2.836 2.34-1.676.234-3.61-.234-1.934-.702-2.837-.234-1.289.234-4.125 1.404-2.708.936-6.06 2.34-3.352 1.17-7.22 2.808-3.739 1.404-7.22 2.808-3.352 1.17-6.06 2.34-2.707 1.17-3.996 1.638-2.063 1.404-2.32 3.51-.258 2.106-.258 4.914 0 4.914.257 10.998l.774 12.169q.516 5.85.903 10.764.515 4.914.644 7.254.516.234 1.934.234h1.934q2.965 0 5.802-.936 2.836-.936 5.672-2.106 2.837-1.17 5.802-1.872 2.965-.936 6.06-.936v8.658q-1.29 0-3.61.468-2.32.234-5.157 1.17-2.708.936-5.544 2.106-2.837.936-5.157 2.106t-3.868 2.34q-1.418 1.17-1.418 2.34v48.673q6.06 0 11.99-.702l12.12-1.404q6.059-.936 12.118-1.638 6.06-.702 12.12-.702 0 2.808-1.032 4.68-1.031 1.638-2.45 2.808-1.289.936-2.836 1.404l-2.32.702q-.516.234-3.224.702-2.707.468-6.704 1.404-3.997.936-8.896 1.872-4.9.936-9.67 1.872t-9.024 1.872l-7.091 1.17q-.387.234-1.16.234 0-31.356-1.161-63.18-1.032-32.06-5.157-62.948zM397.993 145.74l4.9 148.358q11.474 0 22.948-2.574 11.604-2.808 23.723-5.148l.516 7.722q-.13 0-2.45.702-2.192.468-5.93 1.404-3.61.702-8.252 1.638l-9.283 1.872q-4.641.936-8.896 1.872-4.254.936-7.348 1.404h-.645q-.516.234-1.16.234H403.795q-2.836 0-4.641-5.382-1.805-5.616-2.966-14.976-1.16-9.594-1.676-21.762-.516-12.403-.773-25.74-.258-13.34-.258-26.911.129-13.573.129-25.507 0-12.168-.13-21.996 0-9.828-.386-15.21h4.9z" style="line-height:125%;-inkscape-font-specification:'Annie Use Your Telescope, Normal';text-align:start" fill="gold" stroke="gold" stroke-width="9" filter="url(#a)" font-family="Annie Use Your Telescope" font-weight="400" letter-spacing="0" transform="translate(-60.665 -70.041)" word-spacing="0"/><path fill="gold" stroke="gold" stroke-width="9" d="M464.979 138.485q0-2.808 1.031-4.446 1.16-1.872 2.708-1.872H470.007q.645 19.657 1.16 37.44.516 17.551.774 34.633.387 17.083.516 34.165.129 16.848.129 35.335 0 2.574.128 7.02.258 4.446.387 8.658.258 4.212.387 7.722.258 3.276.258 3.51l-5.544 1.872q-.258-9.594-.516-21.996-.257-12.636-.515-26.677-.13-14.274-.387-29.25-.13-15.21-.516-29.953-.258-14.742-.644-28.314-.258-13.806-.645-25.039v-2.808z" filter="url(#a)" font-family="Annie Use Your Telescope" font-weight="400" transform="matrix(1.28862 0 0 .98943 -196.488 -67.745)" style="line-height:125%;-inkscape-font-specification:'Annie Use Your Telescope, Normal';text-align:start" letter-spacing="0" word-spacing="0"/><path d="M495.35 163.758q0 .702-.13 3.042v12.402q0 15.21.387 30.42t.903 30.655q.515 15.21.902 30.655.387 15.444.387 30.888l-4.641-.468q-.13-4.446-.516-12.402-.258-7.956-.774-18.252-.386-10.53-.902-22.465-.516-11.934-1.16-24.102-.516-12.402-.903-24.337-.387-11.934-.774-21.996-.257-10.296-.386-18.018-.13-7.956 0-12.169 0-2.808 1.16-4.68 1.16-1.872 2.707-1.872 1.548 0 3.481 1.404 2.063 1.17 2.708 3.276l46.414 135.957q0-10.764-.387-23.167-.258-12.402-.516-25.506-.258-13.104-.387-26.208 0-13.339.258-25.74.387-12.637 1.29-23.87 1.03-11.232 2.836-20.358 1.805-1.17 2.836-1.17 1.032-.234 1.547 0 .516.234.516 1.17.129.936.129 1.872v2.574q-.258 1.404-.645 5.148l-.773 11.233q-.516 7.254-.903 18.954-.386 11.7-.773 29.017-.387 17.316-.645 41.184-.129 23.869 0 55.693l-3.739.468-49.508-139.232zM568.719 177.096q2.062-5.382 5.414-9.126 3.481-3.978 7.607-6.552 4.255-2.574 9.025-3.978 4.9-1.404 9.54-2.106 4.642-.702 9.025-.936 4.384-.234 7.736-.234.258 0 1.16.234.903 0 1.934.234H623.255q.515 5.148-.645 7.254-1.031 1.872-2.836 2.34-1.676.234-3.61-.234-1.934-.702-2.837-.234-1.29.234-4.125 1.404-2.708.936-6.06 2.34-3.352 1.17-7.22 2.808-3.739 1.404-7.22 2.808-3.352 1.17-6.06 2.34-2.707 1.17-3.996 1.638-2.063 1.404-2.32 3.51-.259 2.106-.259 4.914 0 4.914.258 10.998l.774 12.169q.515 5.85.902 10.764.516 4.914.645 7.254.516.234 1.934.234h1.934q2.965 0 5.801-.936 2.837-.936 5.673-2.106 2.837-1.17 5.802-1.872 2.965-.936 6.06-.936v8.658q-1.29 0-3.61.468-2.321.234-5.158 1.17-2.707.936-5.543 2.106-2.837.936-5.158 2.106-2.32 1.17-3.867 2.34-1.419 1.17-1.419 2.34v48.673q6.06 0 11.99-.702l12.12-1.404q6.06-.936 12.119-1.638 6.06-.702 12.12-.702 0 2.808-1.032 4.68-1.032 1.638-2.45 2.808-1.29.936-2.836 1.404l-2.321.702q-.516.234-3.223.702-2.708.468-6.704 1.404-3.997.936-8.896 1.872-4.9.936-9.67 1.872t-9.025 1.872l-7.09 1.17q-.388.234-1.161.234 0-31.356-1.16-63.18-1.032-32.06-5.157-62.948zM646.726 285.206q.644-2.808 1.934-3.51 1.418-.702 2.965 3.51 0 .468 1.16 1.404 1.29.702 3.095 1.872 1.934.936 4.383 2.106 2.579.936 5.028 1.872 2.45.702 4.77 1.404 2.321.468 3.997.468 4.384 0 7.994-3.276 3.739-3.51 6.317-8.892 2.708-5.382 4.126-12.168 1.418-7.02 1.418-14.275 0-2.106-.387-7.254-.386-5.382-1.289-10.53-.902-5.382-2.45-9.594-1.418-4.212-3.48-4.212-13.409 2.808-22.047 2.34-8.51-.702-13.537-3.744-5.029-3.042-7.091-8.19-1.934-5.382-2.063-12.169 0-8.424 2.32-16.146 2.321-7.956 5.931-14.04 3.61-6.084 7.994-9.594 4.512-3.744 8.896-3.744 3.61 0 7.477 1.638 3.997 1.638 7.35 5.148 3.351 3.276 5.414 8.892 2.192 5.382 2.192 13.104-3.094 0-5.673-3.042-2.579-3.276-5.157-6.786-2.579-3.51-5.415-6.552-2.836-3.276-6.575-3.276-3.095 0-6.318 2.808-3.094 2.808-5.672 7.254-2.45 4.446-4.126 10.062-1.547 5.382-1.547 11.232v5.149q.129 2.574.644 5.148.516 2.34 1.547 3.978 1.16 1.638 3.224 1.638h34.681q2.192 0 3.739 2.574 1.676 2.34 2.707 6.084 1.16 3.744 1.805 8.424.774 4.68 1.16 9.126.516 4.446.645 8.424.13 3.744.13 5.85 0 9.127-1.419 17.317-1.418 7.956-4.255 14.508-2.836 6.318-7.09 10.53-4.255 3.978-9.799 4.914-2.707.468-7.091-.234-4.255-.702-8.638-2.574-4.384-2.106-8.251-5.616-3.868-3.744-5.673-9.36z" style="line-height:125%;-inkscape-font-specification:'Annie Use Your Telescope, Normal';text-align:start" fill="gold" stroke="gold" stroke-width="9" filter="url(#a)" font-family="Annie Use Your Telescope" font-weight="400" letter-spacing="0" transform="translate(-60.665 -70.041)" word-spacing="0"/><path d="M709.193 294.098q-.516-3.51 0-5.382.644-2.106 1.676-3.042 1.031-.936 2.32-.936 1.29-.234 2.32-.234.903 0 2.193.234 1.289 0 2.32.936 1.032.936 1.548 3.042.515 1.872 0 5.382-.13 1.638-.774 3.276-.645 1.404-1.547 2.808-.774 1.404-1.805 2.34-1.032.936-1.934.936-1.031 0-2.063-.936-1.031-.936-1.934-2.34-.902-1.404-1.547-2.808-.516-1.638-.773-3.276z" style="line-height:125%;-inkscape-font-specification:'Annie Use Your Telescope, Normal';text-align:start" fill="gold" stroke="gold" stroke-width="3.98" filter="url(#a)" font-family="Annie Use Your Telescope" font-weight="400" letter-spacing="0" transform="translate(-60.665 -70.041)" word-spacing="0"/><path d="M731.824 242.383q0-7.254.774-16.146.902-9.126 2.578-18.252 1.676-9.36 4.126-18.019 2.578-8.892 5.802-15.678 3.352-7.02 7.477-11.232 4.255-4.212 9.283-4.212 3.61 0 6.06 2.574 2.578 2.574 4.125 6.786 1.547 4.212 2.192 9.594.774 5.148.774 10.53-2.837 0-4.255-3.042-1.418-3.276-2.707-7.02-1.16-3.978-2.837-7.02-1.547-3.276-4.77-3.276-4.255 0-7.607 4.212-3.223 4.212-5.673 10.998-2.45 6.552-4.125 14.976-1.547 8.425-2.579 16.849-.902 8.424-1.29 16.38-.386 7.722-.386 13.104-.516 7.956-.129 16.615.516 8.424 2.192 15.678 1.676 7.02 4.9 11.934 3.222 4.68 8.508 5.382 3.352 0 7.478-1.872 4.126-2.106 8.123-4.68 4.125-2.808 7.864-5.85 3.739-3.276 6.317-5.616v9.126q-.128 0-1.676 1.17-1.418.936-3.867 2.574-2.321 1.638-5.415 3.51-2.966 1.872-5.931 3.978-2.965 1.872-5.802 3.744l-4.641 2.808h-.516q-.387.234-.644.234-7.091 0-11.733-5.382-4.512-5.616-7.22-14.274-2.707-8.892-3.739-19.656-1.03-10.999-1.03-21.529zM803.197 255.955v-31.824q.128-14.976.386-29.485.387-14.742.903-29.718.516-15.21 1.418-32.76h3.739v89.857h28.106q-.129-8.424-.129-18.019 0-9.828-.129-19.656-.129-10.062-.258-19.422v-18.019-14.742-9.828q.387 0 1.29.468 1.03.234 1.933.936 1.032.468 1.805 1.638.774.936.774 2.574v175.27l-3.997-1.405q-.258 0-.387-3.042-.128-3.042-.257-7.488 0-4.68-.13-10.53 0-6.084-.128-11.7 0-5.85-.13-10.999v-8.658-8.892q0-5.616-.128-12.87l-28.235 9.126-.258 66.691h-6.188v-3.276-7.488-10.062-10.764-9.36-6.553z" style="line-height:125%;-inkscape-font-specification:'Annie Use Your Telescope, Normal';text-align:start" fill="gold" stroke="gold" stroke-width="9" filter="url(#a)" font-family="Annie Use Your Telescope" font-weight="400" letter-spacing="0" transform="translate(-60.665 -70.041)" word-spacing="0"/><path fill="gold" fill-rule="evenodd" d="M368.761 89.543c-1.783.085-4.46.833-4.979 1.568-.266.376-.351 1.84-.19 3.255.53 4.7.505 13.942-.047 18.502-.3 2.475-.49 4.68-.423 4.897.151.487-1.628 6.455-2.066 6.929-.176.19-.96-.25-1.743-.98-1.392-1.29-1.473-1.308-3.427-.721-2.774.834-3.108 1.47-2.246 4.27 1.764 5.739 2.462 13.482 2.069 22.941-.507 12.14-1.099 18.157-2.26 22.93-.412 1.693-.752 3.54-.753 4.103-.003.562-.17 1.899-.374 2.969a120.97 120.97 0 00-.712 4.294 471.76 471.76 0 01-1.127 7.282c-5.065-11.57-6.776-20.82-5.164-27.936.59-2.607.585-3.327-.03-3.818-1.182-.942-4.463-2.132-5.627-2.04-.993.08-1.109.214-2.035 2.386-1.496 3.507-2.391 4.847-2.947 4.403-.253-.202-1.27-1.975-2.259-3.938-.987-1.964-2.078-3.961-2.42-4.44-.34-.477-1.29-2.222-2.11-3.876-1.972-3.981-6.739-12.45-10.774-19.146-3.433-5.696-7.127-12.551-8.772-16.284-1.238-2.808-4.316-11.672-4.837-13.925l-.393-1.704-1.236.006c-1.295.004-4.537 1.542-5.55 2.633-.325.35-.455 1.114-.29 1.697.2.71.159.865-.128.471-.235-.324-1.173-1.46-2.087-2.525-1.48-1.726-1.767-1.933-2.655-1.904-1.31.044-4.518 3.01-4.502 4.16.006.443.833 1.719 1.837 2.838 3.332 3.72 8.983 11.532 11.315 15.64 1.266 2.23 2.456 4.181 2.646 4.333.427.34 2.59 6.212 2.51 6.817-.032.242-.964.239-2.073-.01-1.967-.437-2.045-.415-3.334.994-1.83 2.003-1.726 2.698.72 4.659 5.011 4.02 10.353 10.229 15.825 18.4 7.021 10.486 10.215 15.845 12.163 20.418.692 1.623 1.536 3.34 1.88 3.815.343.475 1.025 1.681 1.51 2.68.485 1 1.398 2.783 2.032 3.96 3.517 6.531 7.923 15.174 10.876 21.336.637 1.331 1.255 2.553 1.841 3.677.712 4.553 1.277 9.915 1.294 13.1.014 2.49.099 4.698.193 4.907.212.47-.805 6.573-1.181 7.086-.151.206-.987-.156-1.858-.805-1.546-1.15-1.627-1.159-3.495-.389-2.653 1.095-2.906 1.758-1.697 4.459 2.474 5.535 4.141 13.163 4.938 22.603 1.021 12.115 1.187 18.155.633 23.01-.197 1.723-.302 3.59-.232 4.149.068.559.069 1.905 0 2.988a120.122 120.122 0 00-.166 4.334c-.133 7.216-.534 16.671-.988 23.34-.284 4.162-.33 7.978-.104 8.48.542 1.2 2.613 1.492 6.246.877 2.915-.494 6.94-1.946 7.421-2.676.594-.903 1.195-5.133 1.168-8.22-.015-1.775.092-5.483.237-8.243.818-15.476 4.091-26.398 9.908-33.068 1.843-2.114 2.201-2.76 1.896-3.438-.586-1.3-2.936-3.63-4.027-3.994-.932-.31-1.1-.237-3.026 1.358-3.11 2.574-4.59 3.435-4.865 2.824-.126-.28-.147-2.263-.047-4.406.103-2.143.132-4.355.066-4.916-.065-.56-.04-2.493.057-4.293.235-4.333.222-13.77-.027-21.334-.213-6.434-.074-14.008.33-17.992.222-2.197 1.195-7.668 1.962-11.323.432-1.228.864-2.906 1.176-4.592l.038-.129-.016-.006c.108-.6.22-1.208.286-1.765.208-1.765.78-5.442 1.271-8.17 2.757-15.306 7.382-25.846 14-31.918 2.099-1.925 2.535-2.536 2.317-3.239-.42-1.348-2.461-3.89-3.5-4.355-.888-.399-1.065-.338-3.18 1.062-3.414 2.261-4.995 2.974-5.192 2.34-.09-.29.14-2.263.51-4.384.372-2.12.677-4.316.682-4.88.005-.563.275-2.48.598-4.26.778-4.285 1.95-13.668 2.652-21.21.597-6.415 1.685-13.93 2.587-17.852.678-2.95 3.518-11.876 4.46-14.022l.713-1.62-1.048-.575c-1.096-.602-4.776-.819-6.3-.372-.49.144-1.067.727-1.285 1.296-.267.693-.398.805-.398.339 0-.384-.095-1.783-.213-3.11-.191-2.15-.308-2.459-1.075-2.85-.283-.143-.778-.19-1.373-.162z" filter="url(#a)" transform="translate(-60.665 -70.041)"/><path d="M114.071 76.413l4.9 148.358q11.474 0 22.948-2.574 11.604-2.808 23.723-5.148l.515 7.722q-.128 0-2.45.702-2.19.468-5.93 1.404-3.61.702-8.251 1.638l-9.283 1.873q-4.641.936-8.896 1.872-4.254.936-7.349 1.404h-.644q-.516.234-1.16.234H119.872q-2.837 0-4.642-5.383-1.805-5.616-2.965-14.976-1.16-9.594-1.676-21.762-.516-12.402-.774-25.74-.257-13.339-.257-26.911.129-13.572.129-25.507 0-12.168-.13-21.996 0-9.828-.386-15.21h4.899zM181.057 107.77q2.063-5.383 5.415-9.127 3.48-3.978 7.606-6.552 4.255-2.574 9.025-3.978 4.9-1.404 9.54-2.106 4.642-.702 9.026-.936 4.383-.234 7.735-.234.258 0 1.16.234.903 0 1.935.234h3.094q.515 5.148-.645 7.254-1.031 1.872-2.836 2.34-1.676.234-3.61-.234-1.934-.702-2.837-.234-1.289.234-4.125 1.404-2.708.936-6.06 2.34-3.352 1.17-7.22 2.808-3.739 1.404-7.22 2.808-3.352 1.17-6.06 2.34-2.707 1.17-3.996 1.638-2.063 1.404-2.32 3.51-.258 2.106-.258 4.914 0 4.915.257 10.999l.774 12.168q.516 5.85.902 10.764.516 4.914.645 7.254.516.234 1.934.234h1.934q2.965 0 5.802-.936 2.836-.936 5.672-2.106 2.837-1.17 5.802-1.872 2.965-.936 6.06-.936v8.658q-1.29 0-3.61.468-2.321.234-5.157 1.17-2.708.936-5.544 2.106-2.837.936-5.157 2.106-2.321 1.17-3.868 2.34-1.418 1.17-1.418 2.34v48.673q6.06 0 11.99-.702l12.119-1.404q6.06-.936 12.12-1.638 6.059-.702 12.118-.702 0 2.808-1.031 4.68-1.032 1.638-2.45 2.808-1.289.936-2.836 1.404l-2.32.702q-.517.234-3.224.702-2.707.468-6.704 1.404-3.997.936-8.896 1.872-4.9.937-9.67 1.873-4.77.936-9.025 1.872l-7.09 1.17q-.387.234-1.16.234 0-31.357-1.161-63.182-1.032-32.058-5.157-62.947zM338.757 76.413l4.9 148.358q11.474 0 22.948-2.574 11.604-2.808 23.723-5.148l.516 7.722q-.13 0-2.45.702-2.192.468-5.93 1.404-3.61.702-8.252 1.638l-9.283 1.873q-4.641.936-8.896 1.872-4.254.936-7.349 1.404h-.644q-.516.234-1.16.234H344.559q-2.837 0-4.642-5.383-1.804-5.616-2.965-14.976-1.16-9.594-1.676-21.762-.516-12.402-.773-25.74-.258-13.339-.258-26.911.129-13.572.129-25.507 0-12.168-.13-21.996 0-9.828-.386-15.21h4.9zM403.743 69.159q0-2.808 1.031-4.446 1.16-1.873 2.708-1.873H408.77q.645 19.657 1.16 37.441.516 17.55.774 34.633.387 17.082.516 34.164.128 16.849.128 35.335 0 2.574.13 7.02.257 4.446.386 8.658.258 4.212.387 7.722.258 3.277.258 3.51l-5.544 1.873q-.258-9.595-.516-21.997-.258-12.636-.515-26.676-.13-14.275-.387-29.25-.13-15.211-.516-29.953-.258-14.743-.645-28.315-.257-13.806-.644-25.038v-2.808zM436.113 94.431q0 .702-.129 3.042v12.402q0 15.21.387 30.42.387 15.211.903 30.655.515 15.21.902 30.655.387 15.444.387 30.889l-4.642-.468q-.128-4.447-.515-12.403-.258-7.956-.774-18.252-.387-10.53-.902-22.464-.516-11.935-1.16-24.103-.516-12.402-.903-24.336-.387-11.935-.774-21.997-.257-10.296-.386-18.018-.13-7.956 0-12.168 0-2.808 1.16-4.68 1.16-1.872 2.707-1.872t3.481 1.404q2.063 1.17 2.708 3.276l46.414 135.956q0-10.764-.387-23.166-.258-12.402-.516-25.507-.258-13.104-.387-26.208 0-13.338.258-25.74.387-12.637 1.29-23.87 1.03-11.231 2.836-20.357 1.805-1.17 2.836-1.17 1.032-.234 1.547 0 .516.234.516 1.17.129.936.129 1.872v2.574q-.258 1.404-.645 5.148l-.773 11.232q-.516 7.254-.903 18.954-.387 11.7-.773 29.017-.387 17.316-.645 41.185-.129 23.868 0 55.693l-3.739.468L436.113 94.43zM509.482 107.77q2.063-5.383 5.415-9.127 3.481-3.978 7.607-6.552 4.255-2.574 9.025-3.978 4.9-1.404 9.54-2.106 4.642-.702 9.025-.936 4.384-.234 7.736-.234.258 0 1.16.234.903 0 1.934.234H564.02q.515 5.148-.645 7.254-1.032 1.872-2.837 2.34-1.676.234-3.61-.234-1.933-.702-2.836-.234-1.29.234-4.126 1.404-2.707.936-6.06 2.34-3.351 1.17-7.219 2.808-3.739 1.404-7.22 2.808-3.352 1.17-6.06 2.34-2.707 1.17-3.996 1.638-2.063 1.404-2.32 3.51-.259 2.106-.259 4.914 0 4.915.258 10.999l.774 12.168q.515 5.85.902 10.764.516 4.914.645 7.254.516.234 1.934.234h1.934q2.965 0 5.801-.936 2.837-.936 5.673-2.106t5.802-1.872q2.965-.936 6.06-.936v8.658q-1.29 0-3.61.468-2.321.234-5.158 1.17-2.707.936-5.544 2.106-2.836.936-5.157 2.106-2.32 1.17-3.867 2.34-1.419 1.17-1.419 2.34v48.673q6.06 0 11.99-.702l12.12-1.404q6.06-.936 12.119-1.638 6.06-.702 12.119-.702 0 2.808-1.031 4.68-1.032 1.638-2.45 2.808-1.29.936-2.836 1.404l-2.321.702q-.516.234-3.223.702-2.708.468-6.704 1.404-3.997.936-8.896 1.872-4.9.937-9.67 1.873-4.77.936-9.025 1.872l-7.09 1.17q-.388.234-1.161.234 0-31.357-1.16-63.182-1.032-32.058-5.158-62.947zM587.49 215.88q.644-2.809 1.934-3.51 1.418-.703 2.965 3.51 0 .467 1.16 1.403 1.29.702 3.095 1.872 1.933.936 4.383 2.106 2.579.936 5.028 1.872 2.45.702 4.77 1.404 2.321.468 3.997.468 4.384 0 7.994-3.276 3.739-3.51 6.317-8.892 2.708-5.382 4.126-12.168 1.418-7.02 1.418-14.274 0-2.106-.387-7.254-.387-5.383-1.29-10.53-.902-5.383-2.449-9.595-1.418-4.212-3.48-4.212-13.41 2.808-22.047 2.34-8.51-.702-13.538-3.744-5.028-3.042-7.09-8.19-1.934-5.382-2.063-12.168 0-8.424 2.32-16.147 2.321-7.956 5.931-14.04 3.61-6.084 7.993-9.594 4.513-3.744 8.896-3.744 3.61 0 7.478 1.638 3.997 1.638 7.349 5.148 3.352 3.276 5.415 8.892 2.192 5.382 2.192 13.104-3.095 0-5.673-3.042-2.579-3.276-5.157-6.786-2.579-3.51-5.415-6.552-2.836-3.276-6.575-3.276-3.095 0-6.318 2.808-3.094 2.808-5.673 7.254-2.45 4.446-4.125 10.063-1.547 5.382-1.547 11.232v5.148q.129 2.574.644 5.148.516 2.34 1.547 3.978 1.16 1.638 3.224 1.638h34.68q2.193 0 3.74 2.574 1.676 2.34 2.707 6.084 1.16 3.744 1.805 8.424.774 4.68 1.16 9.126.516 4.447.645 8.425.13 3.744.13 5.85 0 9.126-1.42 17.316-1.417 7.956-4.254 14.508-2.836 6.318-7.09 10.53-4.255 3.979-9.8 4.915-2.707.468-7.09-.234-4.255-.702-8.638-2.574-4.384-2.107-8.251-5.617-3.868-3.744-5.673-9.36z" style="line-height:125%;-inkscape-font-specification:'Annie Use Your Telescope, Normal';text-align:start" stroke="#000" stroke-width="2.9" font-family="Annie Use Your Telescope" font-weight="400" letter-spacing="0" word-spacing="0"/><path d="M649.956 224.771q-.515-3.51 0-5.382.645-2.106 1.676-3.042 1.032-.936 2.321-.936 1.29-.234 2.32-.234.903 0 2.193.234 1.289 0 2.32.936 1.032.936 1.547 3.042.516 1.872 0 5.382-.129 1.638-.773 3.276-.645 1.404-1.547 2.809-.774 1.404-1.805 2.34-1.032.936-1.934.936-1.032 0-2.063-.936-1.031-.936-1.934-2.34-.902-1.405-1.547-2.809-.516-1.638-.774-3.276z" style="line-height:125%;-inkscape-font-specification:'Annie Use Your Telescope, Normal';text-align:start" font-family="Annie Use Your Telescope" font-weight="400" letter-spacing="0" word-spacing="0"/><path d="M672.588 173.056q0-7.254.774-16.146.902-9.126 2.578-18.252 1.676-9.36 4.126-18.018 2.578-8.893 5.801-15.679 3.353-7.02 7.478-11.232 4.255-4.212 9.283-4.212 3.61 0 6.06 2.574 2.578 2.574 4.125 6.786 1.547 4.212 2.192 9.594.773 5.148.773 10.53-2.836 0-4.254-3.042-1.418-3.276-2.708-7.02-1.16-3.978-2.836-7.02-1.547-3.276-4.77-3.276-4.255 0-7.607 4.212-3.223 4.212-5.673 10.998-2.45 6.553-4.125 14.977-1.547 8.424-2.579 16.848-.902 8.424-1.29 16.38-.386 7.722-.386 13.105-.516 7.956-.129 16.614.516 8.424 2.192 15.678 1.676 7.02 4.9 11.934 3.222 4.68 8.508 5.382 3.352 0 7.478-1.872 4.126-2.106 8.122-4.68 4.126-2.808 7.865-5.85 3.739-3.276 6.317-5.616v9.126q-.129 0-1.676 1.17-1.418.936-3.867 2.574-2.321 1.638-5.415 3.51-2.966 1.872-5.931 3.978-2.965 1.872-5.802 3.745l-4.641 2.808h-.516q-.387.234-.644.234-7.091 0-11.733-5.383-4.512-5.616-7.22-14.274-2.707-8.892-3.739-19.656-1.031-10.998-1.031-21.529zM743.96 186.629v-31.825q.13-14.976.387-29.484.387-14.743.903-29.719.515-15.21 1.418-32.76h3.739v89.857h28.106q-.13-8.424-.13-18.018 0-9.828-.128-19.657-.129-10.062-.258-19.422V77.583 62.84v-9.828q.387 0 1.29.468 1.03.234 1.933.936 1.032.468 1.805 1.638.774.936.774 2.574v175.27l-3.997-1.404q-.258 0-.387-3.043-.129-3.042-.257-7.488 0-4.68-.13-10.53 0-6.084-.128-11.7 0-5.85-.13-10.998v-8.658-8.893q0-5.616-.128-12.87l-28.235 9.126-.258 66.692h-6.189v-3.276-7.489-10.062-10.764-9.36-6.552z" style="line-height:125%;-inkscape-font-specification:'Annie Use Your Telescope, Normal';text-align:start" stroke="#000" stroke-width="2.9" font-family="Annie Use Your Telescope" font-weight="400" letter-spacing="0" word-spacing="0"/></svg>