<?xml version="1.0" encoding="UTF-8" standalone="no"?>
<!-- Created with Inkscape (http://www.inkscape.org/) -->

<svg
   width="104.98656mm"
   height="104.98656mm"
   viewBox="0 0 104.98656 104.98656"
   version="1.1"
   id="svg1"
   inkscape:version="1.3 (0e150ed, 2023-07-21)"
   sodipodi:docname="leylines-sign.svg"
   inkscape:export-filename="leylines-sign-512x512.png"
   inkscape:export-xdpi="123.87109"
   inkscape:export-ydpi="123.87109"
   xmlns:inkscape="http://www.inkscape.org/namespaces/inkscape"
   xmlns:sodipodi="http://sodipodi.sourceforge.net/DTD/sodipodi-0.dtd"
   xmlns="http://www.w3.org/2000/svg"
   xmlns:svg="http://www.w3.org/2000/svg">
  <sodipodi:namedview
     id="namedview1"
     pagecolor="#ffffff"
     bordercolor="#666666"
     borderopacity="1.0"
     inkscape:showpageshadow="2"
     inkscape:pageopacity="0.0"
     inkscape:pagecheckerboard="0"
     inkscape:deskcolor="#d1d1d1"
     inkscape:document-units="mm"
     inkscape:zoom="0.5946522"
     inkscape:cx="271.58732"
     inkscape:cy="402.75643"
     inkscape:window-width="1712"
     inkscape:window-height="816"
     inkscape:window-x="0"
     inkscape:window-y="38"
     inkscape:window-maximized="0"
     inkscape:current-layer="layer1" />
  <defs
     id="defs1">
    <filter
       id="filter7942"
       style="color-interpolation-filters:sRGB"
       x="-0.15379768"
       y="-0.058999784"
       width="1.3075954"
       height="1.1179996">
      <feGaussianBlur
         id="feGaussianBlur7944"
         result="result1"
         stdDeviation="4.0099999999999998" />
      <feComposite
         id="feComposite7946"
         operator="in"
         result="result4"
         in2="result1"
         in="result1" />
      <feGaussianBlur
         id="feGaussianBlur7948"
         in="result4"
         result="result6"
         stdDeviation="2" />
      <feComposite
         id="feComposite7950"
         result="result8"
         in2="result4"
         in="result6"
         operator="xor" />
      <feComposite
         id="feComposite7952"
         in2="result8"
         in="result4"
         result="fbSourceGraphic"
         operator="atop" />
      <feSpecularLighting
         id="feSpecularLighting7954"
         in="fbSourceGraphic"
         result="result1"
         lighting-color="#ffffff"
         surfaceScale="3"
         specularConstant="1.29999995"
         specularExponent="10">
        <feDistantLight
           id="feDistantLight7956"
           elevation="55"
           azimuth="235" />
      </feSpecularLighting>
      <feComposite
         id="feComposite7958"
         in2="fbSourceGraphic"
         in="result1"
         result="result2"
         operator="atop" />
      <feComposite
         id="feComposite7960"
         in2="result2"
         in="fbSourceGraphic"
         result="result4"
         operator="arithmetic"
         k2="1"
         k3="1"
         k1="0"
         k4="0" />
      <feComposite
         id="feComposite7962"
         in2="SourceGraphic"
         in="result4"
         operator="over" />
      <feBlend
         id="feBlend7964"
         in2="result2"
         mode="multiply" />
    </filter>
  </defs>
  <g
     inkscape:label="Ebene 1"
     inkscape:groupmode="layer"
     id="layer1"
     transform="translate(-52.506721,-96.006721)">
    <rect
       style="fill:#000000;fill-opacity:1;stroke-width:0.504626"
       id="rect1"
       width="104.98656"
       height="104.98656"
       x="52.506721"
       y="96.006721" />
    <path
       id="path6019"
       d="m 208.06524,26.978733 c -1.78352,0.0851 -4.4605,0.83337 -4.97944,1.56788 -0.26577,0.37669 -0.35143,1.84041 -0.19097,3.2549 0.53051,4.70121 0.5061,13.94184 -0.0464,18.50245 -0.2992,2.47515 -0.49039,4.67964 -0.4229,4.89662 0.15142,0.48696 -1.6273,6.45549 -2.06546,6.92918 -0.17608,0.18973 -0.95954,-0.25072 -1.74349,-0.97932 -1.39185,-1.29037 -1.47305,-1.30875 -3.42695,-0.722 -2.77435,0.83428 -3.10742,1.4699 -2.24551,4.26999 1.76402,5.73917 2.46188,13.48206 2.06816,22.94158 -0.50653,12.13938 -1.09839,18.156977 -2.25916,22.929647 -0.41214,1.69365 -0.75209,3.54056 -0.75307,4.10319 -0.003,0.56171 -0.16995,1.89867 -0.3738,2.96897 -0.20346,1.07156 -0.52514,3.00297 -0.71212,4.2938 -0.32705,2.25563 -0.71753,4.74503 -1.12688,7.28184 -5.06569,-11.57055 -6.77634,-20.81878 -5.16498,-27.93594 0.59078,-2.606647 0.58568,-3.326257 -0.03,-3.817237 -1.18154,-0.94224 -4.46239,-2.13246 -5.6261,-2.03966 -0.99308,0.0786 -1.10942,0.21294 -2.03543,2.38518 -1.49553,3.506657 -2.39108,4.846557 -2.94674,4.403387 -0.25353,-0.20215 -1.26967,-1.97524 -2.25918,-3.938747 -0.98747,-1.96363 -2.07843,-3.96078 -2.42015,-4.43917 -0.34059,-0.47746 -1.28942,-2.22251 -2.10909,-3.8768 -1.9724,-3.98086 -6.73957,-12.45015 -10.77473,-19.14578 -3.43307,-5.69583 -7.1271,-12.55086 -8.77201,-16.28404 -1.23772,-2.80774 -4.31616,-11.67173 -4.83755,-13.92509 l -0.39292,-1.70369 -1.23599,0.006 c -1.29496,0.004 -4.53687,1.5424 -5.54969,2.63299 -0.32499,0.34995 -0.45514,1.11372 -0.28921,1.69656 0.19993,0.70953 0.1581,0.86554 -0.1283,0.47178 -0.23493,-0.324 -1.17317,-1.461 -2.08729,-2.52576 -1.48033,-1.72557 -1.76679,-1.93307 -2.65477,-1.90384 -1.30954,0.044 -4.51879,3.00967 -4.502,4.16036 0.006,0.4424 0.83283,1.71875 1.83627,2.83789 3.33275,3.72086 8.9829,11.53165 11.31495,15.64071 1.26623,2.22976 2.45647,4.18029 2.64662,4.33194 0.42664,0.34023 2.58941,6.21215 2.51017,6.81716 -0.0323,0.2426 -0.96464,0.23872 -2.07362,-0.009 -1.96692,-0.43805 -2.04459,-0.41616 -3.33419,0.99364 -1.83041,2.00276 -1.72561,2.69767 0.72032,4.65839 5.01109,4.0199 10.3528,10.22916 15.82509,18.39996 7.02149,10.486157 10.21484,15.845447 12.1635,20.418197 0.69131,1.62281 1.53548,3.33939 1.87991,3.81485 0.34238,0.47555 1.0242,1.68161 1.50885,2.68063 0.48575,0.99993 1.3985,2.78287 2.03272,3.96023 3.51687,6.53039 7.92346,15.17284 10.87564,21.33557 0.63741,1.33075 1.25583,2.55301 1.84171,3.67664 0.71143,4.55309 1.27688,9.9152 1.29328,13.10063 0.014,2.4889 0.0993,4.69698 0.19374,4.90618 0.21169,0.46953 -0.80543,6.57362 -1.18142,7.08646 -0.15119,0.20543 -0.98733,-0.15629 -1.85808,-0.8054 -1.54553,-1.14923 -1.62676,-1.15878 -3.49518,-0.38842 -2.65282,1.09502 -2.90552,1.75761 -1.6971,4.45825 2.4743,5.53553 4.14164,13.16304 4.93854,22.60323 1.02133,12.11465 1.18725,18.15558 0.63298,23.01066 -0.19691,1.72291 -0.30163,3.58912 -0.23193,4.14844 0.068,0.55862 0.0688,1.9047 0,2.98804 -0.0676,1.08456 -0.14269,3.03336 -0.16642,4.33431 -0.13238,7.21566 -0.53341,16.67103 -0.98771,23.3395 -0.2838,4.1626 -0.33013,7.97825 -0.10359,8.4804 0.54113,1.20015 2.61277,1.49222 6.24547,0.87687 2.91472,-0.49375 6.94087,-1.946 7.42143,-2.67589 0.59409,-0.90319 1.19507,-5.13318 1.16777,-8.22066 -0.0147,-1.77423 0.0923,-5.48286 0.23738,-8.2421 0.81793,-15.47661 4.09101,-26.39887 9.90707,-33.06846 1.84391,-2.1137 2.20173,-2.76092 1.89629,-3.4384 -0.58624,-1.30015 -2.93548,-3.62968 -4.02724,-3.99356 -0.93142,-0.31094 -1.09977,-0.23653 -3.02586,1.3582 -3.10991,2.57419 -4.58916,3.43508 -4.86487,2.82364 -0.12571,-0.27898 -0.14721,-2.26237 -0.0464,-4.4058 0.1027,-2.14277 0.13127,-4.35484 0.0655,-4.91573 -0.0652,-0.55964 -0.0403,-2.49328 0.0572,-4.2938 0.23469,-4.33268 0.2223,-13.76997 -0.0273,-21.33318 -0.21283,-6.43403 -0.0738,-14.00808 0.33015,-17.99252 0.22232,-2.19675 1.19494,-7.66737 1.96176,-11.32306 0.43191,-1.22796 0.86384,-2.90571 1.17596,-4.59165 l 0.0381,-0.12866 -0.0163,-0.006 c 0.1088,-0.60139 0.2211,-1.20894 0.28648,-1.76568 0.20811,-1.76492 0.78053,-5.44194 1.27148,-8.17061 2.757,-15.30485 7.38102,-25.84542 13.99974,-31.91757 2.0983,-1.92431 2.53498,-2.53557 2.31647,-3.23823 -0.41934,-1.34848 -2.46116,-3.889477 -3.50063,-4.355727 -0.88672,-0.3983 -1.06387,-0.33791 -3.17865,1.0627 -3.41445,2.260727 -4.99505,2.974107 -5.19229,2.339917 -0.0899,-0.28936 0.14077,-2.263467 0.51023,-4.384357 0.37122,-2.11996 0.67709,-4.31613 0.68214,-4.87995 0.005,-0.56252 0.27442,-2.48015 0.59752,-4.26048 0.77753,-4.28404 1.95019,-13.66776 2.65206,-21.20926 0.59663,-6.41557 1.68455,-13.93023 2.58659,-17.85193 0.67794,-2.94979 3.51853,-11.87629 4.46103,-14.02276 l 0.71216,-1.62029 -1.04774,-0.57429 c -1.09639,-0.60178 -4.77569,-0.81845 -6.30003,-0.37169 -0.48915,0.14336 -1.06756,0.72651 -1.28511,1.29624 -0.26661,0.69262 -0.39819,0.80482 -0.39835,0.33834 4.9e-4,-0.38347 -0.0944,-1.78279 -0.21283,-3.10955 -0.19095,-2.14969 -0.30735,-2.45894 -1.07502,-2.84982 -0.28314,-0.1439 -0.77789,-0.19036 -1.37242,-0.16201 z"
       style="display:inline;fill:#ffd700;fill-opacity:1;fill-rule:evenodd;stroke:#ffd700;stroke-width:0;stroke-miterlimit:4;stroke-dasharray:none;stroke-opacity:1;filter:url(#filter7942)"
       inkscape:connector-curvature="0"
       transform="matrix(0.34926403,0,0,0.34926403,44.624881,96.386623)" />
  </g>
</svg>
